<svg xmlns="http://www.w3.org/2000/svg" version="1.1" xmlns:xlink="http://www.w3.org/1999/xlink" xmlns:svgjs="http://svgjs.dev/svgjs" width="1000" height="1000"><g clip-path="url(#SvgjsClipPath1047)"><rect width="1000" height="1000" fill="#0e0f12"></rect><g transform="matrix(23.333333333333332,0,0,23.333333333333332,150,150)"><svg xmlns="http://www.w3.org/2000/svg" version="1.1" xmlns:xlink="http://www.w3.org/1999/xlink" xmlns:svgjs="http://svgjs.dev/svgjs" width="30" height="30"><svg width="30" height="30" viewBox="0 0 14 15" xmlns="http://www.w3.org/2000/svg">
  <g transform="translate(2 8.25)">
    <path fill="#1FBF75" d="m4.8828.6523-3.948 5.108c-.075.098-.006.24.118.24h7.894c.124 0 .194-.142.119-.24L5.1168.6523c-.059-.077-.174-.077-.234 0"></path>
  </g>
  <g transform="translate(0 -.75)">
    <path fill="#FFFFFF" d="m2.7324 13.0918 1.954-2.561c.046-.059.036-.142-.02-.193-.9-.81-1.391-2.063-1.066-3.433.298-1.257 1.32-2.277 2.581-2.563 2.289-.518 4.319 1.208 4.319 3.408 0 1.031-.456 1.948-1.166 2.588-.057.051-.067.134-.021.194l1.954 2.56c.052.068.153.081.219.025 1.481-1.238 2.444-3.076 2.51-5.142.122-3.835-3.044-7.162-6.88-7.224-3.919-.063-7.116 3.094-7.116 6.999 0 2.157.978 4.084 2.513 5.367.066.056.167.043.219-.025"></path>
  </g>
</svg></svg></g></g><defs><clipPath id="SvgjsClipPath1047"><rect width="1000" height="1000" x="0" y="0" rx="350" ry="350"></rect></clipPath></defs></svg>