<svg xmlns="http://www.w3.org/2000/svg" xmlns:xlink="http://www.w3.org/1999/xlink" width="30" zoomAndPan="magnify" viewBox="0 0 22.5 22.5" height="30" preserveAspectRatio="xMidYMid meet" version="1.0"><defs><clipPath id="7935478810"><path d="M 0 0 L 14.675781 0 L 14.675781 14.675781 L 0 14.675781 Z M 0 0 " clip-rule="nonzero"/></clipPath><clipPath id="7bb94db57a"><path d="M 0 3.667969 L 0 11.003906 C 0 13.03125 1.640625 14.675781 3.667969 14.675781 L 11.003906 14.675781 C 13.03125 14.675781 14.675781 13.03125 14.675781 11.003906 L 14.675781 3.667969 C 14.675781 1.640625 13.03125 0 11.003906 0 L 3.667969 0 C 1.640625 0 0 1.640625 0 3.667969 Z M 0 3.667969 " clip-rule="nonzero"/></clipPath><clipPath id="4db9a412db"><path d="M 1 1 L 13 1 L 13 13 L 1 13 Z M 1 1 " clip-rule="nonzero"/></clipPath><clipPath id="d26be2e415"><path d="M 0 3.667969 L 0 11.003906 C 0 13.03125 1.640625 14.675781 3.667969 14.675781 L 11.003906 14.675781 C 13.03125 14.675781 14.675781 13.03125 14.675781 11.003906 L 14.675781 3.667969 C 14.675781 1.640625 13.03125 0 11.003906 0 L 3.667969 0 C 1.640625 0 0 1.640625 0 3.667969 Z M 0 3.667969 " clip-rule="nonzero"/></clipPath><clipPath id="192879e406"><path d="M 7.335938 7.335938 L 22.011719 7.335938 L 22.011719 22.011719 L 7.335938 22.011719 Z M 7.335938 7.335938 " clip-rule="nonzero"/></clipPath><clipPath id="8b5c3bcdc8"><path d="M 7.335938 11.003906 L 7.335938 18.34375 C 7.335938 20.367188 8.980469 22.011719 11.003906 22.011719 L 18.34375 22.011719 C 20.367188 22.011719 22.011719 20.367188 22.011719 18.34375 L 22.011719 11.003906 C 22.011719 8.980469 20.367188 7.335938 18.34375 7.335938 L 11.003906 7.335938 C 8.980469 7.335938 7.335938 8.980469 7.335938 11.003906 Z M 7.335938 11.003906 " clip-rule="nonzero"/></clipPath><clipPath id="c9c062f898"><path d="M 9 10 L 17 10 L 17 19 L 9 19 Z M 9 10 " clip-rule="nonzero"/></clipPath><clipPath id="98151a6a53"><path d="M 7.335938 11.003906 L 7.335938 18.34375 C 7.335938 20.367188 8.980469 22.011719 11.003906 22.011719 L 18.34375 22.011719 C 20.367188 22.011719 22.011719 20.367188 22.011719 18.34375 L 22.011719 11.003906 C 22.011719 8.980469 20.367188 7.335938 18.34375 7.335938 L 11.003906 7.335938 C 8.980469 7.335938 7.335938 8.980469 7.335938 11.003906 Z M 7.335938 11.003906 " clip-rule="nonzero"/></clipPath><clipPath id="78d899d836"><path d="M 16 13 L 20 13 L 20 17 L 16 17 Z M 16 13 " clip-rule="nonzero"/></clipPath><clipPath id="22b76989a4"><path d="M 7.335938 11.003906 L 7.335938 18.34375 C 7.335938 20.367188 8.980469 22.011719 11.003906 22.011719 L 18.34375 22.011719 C 20.367188 22.011719 22.011719 20.367188 22.011719 18.34375 L 22.011719 11.003906 C 22.011719 8.980469 20.367188 7.335938 18.34375 7.335938 L 11.003906 7.335938 C 8.980469 7.335938 7.335938 8.980469 7.335938 11.003906 Z M 7.335938 11.003906 " clip-rule="nonzero"/></clipPath></defs><g clip-path="url(#7935478810)"><g clip-path="url(#7bb94db57a)"><path fill="#1565c0" d="M 0 0 L 14.675781 0 L 14.675781 14.675781 L 0 14.675781 Z M 0 0 " fill-opacity="1" fill-rule="nonzero"/></g></g><g clip-path="url(#4db9a412db)"><g clip-path="url(#d26be2e415)"><path fill="#fdd835" d="M 7.296875 1.628906 L 7.597656 2.558594 L 8.574219 2.558594 L 7.785156 3.128906 L 8.085938 4.058594 L 7.296875 3.488281 L 6.511719 4.058594 L 6.808594 3.136719 L 6.023438 2.566406 L 7.003906 2.566406 L 7.289062 1.628906 Z M 3.292969 3.292969 L 4.164062 3.734375 L 4.851562 3.050781 L 4.703125 4.011719 L 5.566406 4.449219 L 4.605469 4.605469 L 4.449219 5.566406 L 4.011719 4.703125 L 3.050781 4.851562 L 3.734375 4.164062 Z M 1.628906 7.296875 L 2.558594 6.996094 L 2.558594 6.015625 L 3.128906 6.808594 L 4.066406 6.523438 L 3.496094 7.304688 L 4.066406 8.09375 L 3.148438 7.792969 L 2.574219 8.585938 L 2.574219 7.605469 Z M 3.292969 11.300781 L 3.734375 10.433594 L 3.050781 9.742188 L 4.011719 9.898438 L 4.449219 9.023438 L 4.605469 9.996094 L 5.566406 10.140625 L 4.703125 10.589844 L 4.851562 11.550781 L 4.164062 10.859375 Z M 7.296875 12.960938 L 6.996094 12.03125 L 6.015625 12.03125 L 6.808594 11.460938 L 6.523438 10.53125 L 7.304688 11.101562 L 8.09375 10.53125 L 7.792969 11.460938 L 8.585938 12.03125 L 7.605469 12.03125 L 7.304688 12.960938 Z M 11.300781 11.300781 L 10.433594 10.859375 L 9.742188 11.550781 L 9.898438 10.589844 L 9.023438 10.140625 L 9.996094 9.996094 L 10.140625 9.023438 L 10.589844 9.898438 L 11.550781 9.742188 L 10.859375 10.433594 Z M 12.960938 7.296875 L 12.03125 7.597656 L 12.03125 8.574219 L 11.460938 7.785156 L 10.53125 8.085938 L 11.101562 7.296875 L 10.53125 6.511719 L 11.460938 6.808594 L 12.03125 6.023438 L 12.03125 7.003906 Z M 11.300781 3.292969 L 10.859375 4.164062 L 11.550781 4.851562 L 10.589844 4.703125 L 10.140625 5.566406 L 9.996094 4.605469 L 9.023438 4.449219 L 9.898438 4.011719 L 9.742188 3.050781 L 10.433594 3.734375 Z M 11.300781 3.292969 " fill-opacity="1" fill-rule="nonzero"/></g></g><g clip-path="url(#192879e406)"><g clip-path="url(#8b5c3bcdc8)"><path fill="#ef5350" d="M 7.335938 7.335938 L 22.011719 7.335938 L 22.011719 22.011719 L 7.335938 22.011719 Z M 7.335938 7.335938 " fill-opacity="1" fill-rule="nonzero"/></g></g><g clip-path="url(#c9c062f898)"><g clip-path="url(#98151a6a53)"><path fill="#f8f9fd" d="M 16.628906 11.699219 C 16.261719 11.5625 15.882812 11.496094 15.488281 11.496094 C 14.832031 11.492188 14.230469 11.667969 13.683594 12.027344 C 13.136719 12.386719 12.730469 12.867188 12.472656 13.46875 C 12.351562 13.757812 12.277344 14.0625 12.246094 14.375 C 12.214844 14.691406 12.234375 15 12.300781 15.308594 C 12.367188 15.617188 12.476562 15.910156 12.628906 16.1875 C 12.785156 16.460938 12.976562 16.707031 13.207031 16.925781 C 13.664062 17.359375 14.207031 17.640625 14.824219 17.769531 C 15.445312 17.898438 16.050781 17.851562 16.648438 17.632812 C 16.425781 17.847656 16.179688 18.03125 15.914062 18.1875 C 15.648438 18.347656 15.371094 18.472656 15.078125 18.566406 C 14.78125 18.660156 14.484375 18.71875 14.175781 18.746094 C 13.867188 18.769531 13.5625 18.757812 13.257812 18.714844 C 12.953125 18.667969 12.65625 18.589844 12.367188 18.480469 C 12.082031 18.367188 11.808594 18.222656 11.554688 18.046875 C 11.300781 17.875 11.070312 17.675781 10.863281 17.445312 C 10.652344 17.21875 10.472656 16.972656 10.320312 16.703125 C 9.960938 16.074219 9.777344 15.394531 9.777344 14.664062 C 9.777344 13.9375 9.960938 13.257812 10.320312 12.628906 C 10.472656 12.359375 10.652344 12.113281 10.859375 11.882812 C 11.066406 11.65625 11.296875 11.457031 11.550781 11.28125 C 11.804688 11.105469 12.074219 10.960938 12.359375 10.851562 C 12.644531 10.738281 12.941406 10.65625 13.246094 10.613281 C 13.550781 10.566406 13.855469 10.558594 14.164062 10.582031 C 14.46875 10.605469 14.769531 10.664062 15.0625 10.757812 C 15.355469 10.851562 15.636719 10.976562 15.898438 11.136719 C 16.164062 11.292969 16.40625 11.476562 16.628906 11.691406 Z M 16.628906 11.699219 " fill-opacity="1" fill-rule="nonzero"/></g></g><g clip-path="url(#78d899d836)"><g clip-path="url(#22b76989a4)"><path fill="#f8f9fd" d="M 17.566406 13.042969 L 17.566406 14.398438 L 16.304688 14.738281 L 17.550781 15.179688 L 17.550781 16.417969 L 18.367188 15.449219 L 19.597656 15.871094 L 18.824219 14.84375 L 19.6875 13.808594 L 18.359375 14.175781 L 17.542969 13.042969 Z M 17.566406 13.042969 " fill-opacity="1" fill-rule="nonzero"/></g></g></svg>