<svg xmlns="http://www.w3.org/2000/svg" xmlns:xlink="http://www.w3.org/1999/xlink" width="31" zoomAndPan="magnify" viewBox="0 0 23.25 23.249999" height="31" preserveAspectRatio="xMidYMid meet" version="1.0"><defs><clipPath id="e3701be25b"><path d="M 0 0 L 15 0 L 15 15 L 0 15 Z M 0 0 " clip-rule="nonzero"/></clipPath><clipPath id="70f49f8cd4"><path d="M 0 3.632812 L 0 11.285156 C 0 13.292969 1.625 14.917969 3.632812 14.917969 L 11.285156 14.917969 C 13.292969 14.917969 14.917969 13.292969 14.917969 11.285156 L 14.917969 3.632812 C 14.917969 1.625 13.292969 0 11.285156 0 L 3.632812 0 C 1.625 0 0 1.625 0 3.632812 Z M 0 3.632812 " clip-rule="nonzero"/></clipPath><clipPath id="5dd4893cf5"><path d="M 0 0 L 10 0 L 10 10 L 0 10 Z M 0 0 " clip-rule="nonzero"/></clipPath><clipPath id="114761941e"><path d="M 0 3.632812 L 0 11.285156 C 0 13.292969 1.625 14.917969 3.632812 14.917969 L 11.285156 14.917969 C 13.292969 14.917969 14.917969 13.292969 14.917969 11.285156 L 14.917969 3.632812 C 14.917969 1.625 13.292969 0 11.285156 0 L 3.632812 0 C 1.625 0 0 1.625 0 3.632812 Z M 0 3.632812 " clip-rule="nonzero"/></clipPath><clipPath id="e9ba9c4626"><path d="M 1 0 L 9 0 L 9 9 L 1 9 Z M 1 0 " clip-rule="nonzero"/></clipPath><clipPath id="6b18c8314d"><path d="M 0 3.632812 L 0 11.285156 C 0 13.292969 1.625 14.917969 3.632812 14.917969 L 11.285156 14.917969 C 13.292969 14.917969 14.917969 13.292969 14.917969 11.285156 L 14.917969 3.632812 C 14.917969 1.625 13.292969 0 11.285156 0 L 3.632812 0 C 1.625 0 0 1.625 0 3.632812 Z M 0 3.632812 " clip-rule="nonzero"/></clipPath><clipPath id="2a15904598"><path d="M 7.460938 7.460938 L 22.523438 7.460938 L 22.523438 22.523438 L 7.460938 22.523438 Z M 7.460938 7.460938 " clip-rule="nonzero"/></clipPath><clipPath id="c7c174b18e"><path d="M 7.460938 11.09375 L 7.460938 18.746094 C 7.460938 20.75 9.085938 22.378906 11.09375 22.378906 L 18.746094 22.378906 C 20.75 22.378906 22.378906 20.75 22.378906 18.746094 L 22.378906 11.09375 C 22.378906 9.085938 20.75 7.460938 18.746094 7.460938 L 11.09375 7.460938 C 9.085938 7.460938 7.460938 9.085938 7.460938 11.09375 Z M 7.460938 11.09375 " clip-rule="nonzero"/></clipPath><clipPath id="a380da0423"><path d="M 7.460938 7.460938 L 16 7.460938 L 16 16 L 7.460938 16 Z M 7.460938 7.460938 " clip-rule="nonzero"/></clipPath><clipPath id="2c75555f5e"><path d="M 7.460938 11.09375 L 7.460938 18.746094 C 7.460938 20.75 9.085938 22.378906 11.09375 22.378906 L 18.746094 22.378906 C 20.75 22.378906 22.378906 20.75 22.378906 18.746094 L 22.378906 11.09375 C 22.378906 9.085938 20.75 7.460938 18.746094 7.460938 L 11.09375 7.460938 C 9.085938 7.460938 7.460938 9.085938 7.460938 11.09375 Z M 7.460938 11.09375 " clip-rule="nonzero"/></clipPath><clipPath id="dbc2899a75"><path d="M 8 8 L 15 8 L 15 15 L 8 15 Z M 8 8 " clip-rule="nonzero"/></clipPath><clipPath id="446151a673"><path d="M 7.460938 11.09375 L 7.460938 18.746094 C 7.460938 20.75 9.085938 22.378906 11.09375 22.378906 L 18.746094 22.378906 C 20.75 22.378906 22.378906 20.75 22.378906 18.746094 L 22.378906 11.09375 C 22.378906 9.085938 20.75 7.460938 18.746094 7.460938 L 11.09375 7.460938 C 9.085938 7.460938 7.460938 9.085938 7.460938 11.09375 Z M 7.460938 11.09375 " clip-rule="nonzero"/></clipPath><clipPath id="f591aab618"><path d="M 9 9 L 14 9 L 14 14 L 9 14 Z M 9 9 " clip-rule="nonzero"/></clipPath><clipPath id="96ffbb83c6"><path d="M 7.460938 11.09375 L 7.460938 18.746094 C 7.460938 20.75 9.085938 22.378906 11.09375 22.378906 L 18.746094 22.378906 C 20.75 22.378906 22.378906 20.75 22.378906 18.746094 L 22.378906 11.09375 C 22.378906 9.085938 20.75 7.460938 18.746094 7.460938 L 11.09375 7.460938 C 9.085938 7.460938 7.460938 9.085938 7.460938 11.09375 Z M 7.460938 11.09375 " clip-rule="nonzero"/></clipPath></defs><g clip-path="url(#e3701be25b)"><g clip-path="url(#70f49f8cd4)"><path fill="#f8f9fd" d="M 0 0 L 15.257812 0 L 15.257812 15.257812 L 0 15.257812 Z M 0 0 " fill-opacity="1" fill-rule="nonzero"/><path fill="#ef5350" d="M 9.324219 3.390625 L 15.257812 3.390625 L 15.257812 0 L 9.324219 0 Z M 0 15.257812 L 15.257812 15.257812 L 15.257812 11.867188 L 0 11.867188 Z M 9.324219 9.324219 L 15.257812 9.324219 L 15.257812 5.933594 L 9.324219 5.933594 Z M 9.324219 9.324219 " fill-opacity="1" fill-rule="nonzero"/></g></g><g clip-path="url(#5dd4893cf5)"><g clip-path="url(#114761941e)"><path fill="#1e88e9" d="M 0 0 L 9.324219 0 L 9.324219 9.324219 L 0 9.324219 Z M 0 0 " fill-opacity="1" fill-rule="nonzero"/></g></g><g clip-path="url(#e9ba9c4626)"><g clip-path="url(#6b18c8314d)"><path fill="#f8f9fd" d="M 2.050781 1.035156 C 2.066406 1.007812 2.089844 0.992188 2.121094 0.992188 C 2.148438 0.992188 2.171875 1.007812 2.1875 1.035156 L 2.414062 1.636719 C 2.425781 1.667969 2.457031 1.6875 2.484375 1.6875 L 3.128906 1.722656 C 3.195312 1.722656 3.222656 1.804688 3.171875 1.855469 L 2.660156 2.253906 C 2.636719 2.277344 2.632812 2.308594 2.644531 2.339844 L 2.8125 2.949219 C 2.824219 2.984375 2.816406 3.015625 2.785156 3.035156 C 2.753906 3.058594 2.726562 3.058594 2.695312 3.035156 L 2.160156 2.6875 C 2.132812 2.667969 2.105469 2.667969 2.078125 2.6875 L 1.542969 3.035156 C 1.511719 3.058594 1.484375 3.058594 1.453125 3.035156 C 1.421875 3.015625 1.414062 2.984375 1.425781 2.949219 L 1.59375 2.332031 C 1.605469 2.296875 1.597656 2.269531 1.566406 2.246094 L 1.066406 1.855469 C 1.039062 1.835938 1.03125 1.808594 1.042969 1.773438 C 1.054688 1.742188 1.074219 1.722656 1.109375 1.722656 L 1.753906 1.6875 C 1.78125 1.6875 1.8125 1.667969 1.824219 1.636719 L 2.050781 1.042969 Z M 2.050781 3.578125 C 2.066406 3.550781 2.089844 3.535156 2.121094 3.535156 C 2.148438 3.535156 2.171875 3.550781 2.1875 3.578125 L 2.414062 4.179688 C 2.425781 4.210938 2.457031 4.230469 2.484375 4.230469 L 3.128906 4.265625 C 3.195312 4.265625 3.222656 4.347656 3.171875 4.398438 L 2.660156 4.796875 C 2.636719 4.820312 2.632812 4.851562 2.644531 4.882812 L 2.8125 5.492188 C 2.824219 5.527344 2.816406 5.558594 2.785156 5.578125 C 2.753906 5.601562 2.726562 5.601562 2.695312 5.578125 L 2.160156 5.230469 C 2.132812 5.210938 2.105469 5.210938 2.078125 5.230469 L 1.542969 5.578125 C 1.511719 5.601562 1.484375 5.601562 1.453125 5.578125 C 1.421875 5.558594 1.414062 5.527344 1.425781 5.492188 L 1.59375 4.875 C 1.605469 4.839844 1.597656 4.8125 1.566406 4.789062 L 1.066406 4.398438 C 1.039062 4.378906 1.03125 4.351562 1.042969 4.316406 C 1.054688 4.285156 1.074219 4.265625 1.109375 4.265625 L 1.753906 4.230469 C 1.78125 4.230469 1.8125 4.210938 1.824219 4.179688 L 2.050781 3.585938 Z M 2.050781 6.121094 C 2.066406 6.09375 2.089844 6.078125 2.121094 6.078125 C 2.148438 6.078125 2.171875 6.09375 2.1875 6.121094 L 2.414062 6.722656 C 2.425781 6.753906 2.457031 6.773438 2.484375 6.773438 L 3.128906 6.808594 C 3.195312 6.808594 3.222656 6.890625 3.171875 6.941406 L 2.660156 7.339844 C 2.636719 7.363281 2.632812 7.394531 2.644531 7.425781 L 2.8125 8.035156 C 2.824219 8.070312 2.816406 8.101562 2.785156 8.121094 C 2.753906 8.144531 2.726562 8.144531 2.695312 8.121094 L 2.160156 7.773438 C 2.132812 7.753906 2.105469 7.753906 2.078125 7.773438 L 1.542969 8.121094 C 1.511719 8.144531 1.484375 8.144531 1.453125 8.121094 C 1.421875 8.101562 1.414062 8.070312 1.425781 8.035156 L 1.59375 7.417969 C 1.605469 7.382812 1.597656 7.355469 1.566406 7.332031 L 1.066406 6.941406 C 1.039062 6.921875 1.03125 6.894531 1.042969 6.859375 C 1.054688 6.828125 1.074219 6.808594 1.109375 6.808594 L 1.753906 6.773438 C 1.78125 6.773438 1.8125 6.753906 1.824219 6.722656 L 2.050781 6.128906 Z M 4.59375 1.035156 C 4.609375 1.007812 4.632812 0.992188 4.664062 0.992188 C 4.691406 0.992188 4.714844 1.007812 4.730469 1.035156 L 4.957031 1.636719 C 4.96875 1.667969 5 1.6875 5.027344 1.6875 L 5.671875 1.722656 C 5.738281 1.722656 5.765625 1.804688 5.714844 1.855469 L 5.203125 2.253906 C 5.179688 2.277344 5.175781 2.308594 5.1875 2.339844 L 5.355469 2.949219 C 5.367188 2.984375 5.359375 3.015625 5.328125 3.035156 C 5.296875 3.058594 5.269531 3.058594 5.238281 3.035156 L 4.703125 2.6875 C 4.675781 2.667969 4.648438 2.667969 4.621094 2.6875 L 4.085938 3.035156 C 4.054688 3.058594 4.027344 3.058594 3.996094 3.035156 C 3.964844 3.015625 3.957031 2.984375 3.96875 2.949219 L 4.136719 2.332031 C 4.148438 2.296875 4.140625 2.269531 4.109375 2.246094 L 3.609375 1.855469 C 3.582031 1.835938 3.574219 1.808594 3.585938 1.773438 C 3.597656 1.742188 3.617188 1.722656 3.652344 1.722656 L 4.296875 1.6875 C 4.324219 1.6875 4.355469 1.667969 4.367188 1.636719 L 4.59375 1.042969 Z M 4.59375 3.578125 C 4.609375 3.550781 4.632812 3.535156 4.664062 3.535156 C 4.691406 3.535156 4.714844 3.550781 4.730469 3.578125 L 4.957031 4.179688 C 4.96875 4.210938 5 4.230469 5.027344 4.230469 L 5.671875 4.265625 C 5.738281 4.265625 5.765625 4.347656 5.714844 4.398438 L 5.203125 4.796875 C 5.179688 4.820312 5.175781 4.851562 5.1875 4.882812 L 5.355469 5.492188 C 5.367188 5.527344 5.359375 5.558594 5.328125 5.578125 C 5.296875 5.601562 5.269531 5.601562 5.238281 5.578125 L 4.703125 5.230469 C 4.675781 5.210938 4.648438 5.210938 4.621094 5.230469 L 4.085938 5.578125 C 4.054688 5.601562 4.027344 5.601562 3.996094 5.578125 C 3.964844 5.558594 3.957031 5.527344 3.96875 5.492188 L 4.136719 4.875 C 4.148438 4.839844 4.140625 4.8125 4.109375 4.789062 L 3.609375 4.398438 C 3.582031 4.378906 3.574219 4.351562 3.585938 4.316406 C 3.597656 4.285156 3.617188 4.265625 3.652344 4.265625 L 4.296875 4.230469 C 4.324219 4.230469 4.355469 4.210938 4.367188 4.179688 L 4.59375 3.585938 Z M 4.59375 6.121094 C 4.609375 6.09375 4.632812 6.078125 4.664062 6.078125 C 4.691406 6.078125 4.714844 6.09375 4.730469 6.121094 L 4.957031 6.722656 C 4.96875 6.753906 5 6.773438 5.027344 6.773438 L 5.671875 6.808594 C 5.738281 6.808594 5.765625 6.890625 5.714844 6.941406 L 5.203125 7.339844 C 5.179688 7.363281 5.175781 7.394531 5.1875 7.425781 L 5.355469 8.035156 C 5.367188 8.070312 5.359375 8.101562 5.328125 8.121094 C 5.296875 8.144531 5.269531 8.144531 5.238281 8.121094 L 4.703125 7.773438 C 4.675781 7.753906 4.648438 7.753906 4.621094 7.773438 L 4.085938 8.121094 C 4.054688 8.144531 4.027344 8.144531 3.996094 8.121094 C 3.964844 8.101562 3.957031 8.070312 3.96875 8.035156 L 4.136719 7.417969 C 4.148438 7.382812 4.140625 7.355469 4.109375 7.332031 L 3.609375 6.941406 C 3.582031 6.921875 3.574219 6.894531 3.585938 6.859375 C 3.597656 6.828125 3.617188 6.808594 3.652344 6.808594 L 4.296875 6.773438 C 4.324219 6.773438 4.355469 6.753906 4.367188 6.722656 L 4.59375 6.128906 Z M 7.136719 1.035156 C 7.152344 1.007812 7.175781 0.992188 7.207031 0.992188 C 7.234375 0.992188 7.257812 1.007812 7.273438 1.035156 L 7.5 1.636719 C 7.511719 1.667969 7.542969 1.6875 7.570312 1.6875 L 8.214844 1.722656 C 8.28125 1.722656 8.308594 1.804688 8.257812 1.855469 L 7.746094 2.253906 C 7.722656 2.277344 7.71875 2.308594 7.730469 2.339844 L 7.898438 2.949219 C 7.910156 2.984375 7.902344 3.015625 7.871094 3.035156 C 7.839844 3.058594 7.8125 3.058594 7.78125 3.035156 L 7.246094 2.6875 C 7.21875 2.667969 7.191406 2.667969 7.164062 2.6875 L 6.628906 3.035156 C 6.597656 3.058594 6.570312 3.058594 6.539062 3.035156 C 6.507812 3.015625 6.5 2.984375 6.511719 2.949219 L 6.679688 2.332031 C 6.691406 2.296875 6.683594 2.269531 6.652344 2.246094 L 6.152344 1.855469 C 6.125 1.835938 6.117188 1.808594 6.128906 1.773438 C 6.140625 1.742188 6.160156 1.722656 6.195312 1.722656 L 6.839844 1.6875 C 6.867188 1.6875 6.898438 1.667969 6.910156 1.636719 L 7.136719 1.042969 Z M 7.136719 3.578125 C 7.152344 3.550781 7.175781 3.535156 7.207031 3.535156 C 7.234375 3.535156 7.257812 3.550781 7.273438 3.578125 L 7.5 4.179688 C 7.511719 4.210938 7.542969 4.230469 7.570312 4.230469 L 8.214844 4.265625 C 8.28125 4.265625 8.308594 4.347656 8.257812 4.398438 L 7.746094 4.796875 C 7.722656 4.820312 7.71875 4.851562 7.730469 4.882812 L 7.898438 5.492188 C 7.910156 5.527344 7.902344 5.558594 7.871094 5.578125 C 7.839844 5.601562 7.8125 5.601562 7.78125 5.578125 L 7.246094 5.230469 C 7.21875 5.210938 7.191406 5.210938 7.164062 5.230469 L 6.628906 5.578125 C 6.597656 5.601562 6.570312 5.601562 6.539062 5.578125 C 6.507812 5.558594 6.5 5.527344 6.511719 5.492188 L 6.679688 4.875 C 6.691406 4.839844 6.683594 4.8125 6.652344 4.789062 L 6.152344 4.398438 C 6.125 4.378906 6.117188 4.351562 6.128906 4.316406 C 6.140625 4.285156 6.160156 4.265625 6.195312 4.265625 L 6.839844 4.230469 C 6.867188 4.230469 6.898438 4.210938 6.910156 4.179688 L 7.136719 3.585938 Z M 7.136719 6.121094 C 7.152344 6.09375 7.175781 6.078125 7.207031 6.078125 C 7.234375 6.078125 7.257812 6.09375 7.273438 6.121094 L 7.5 6.722656 C 7.511719 6.753906 7.542969 6.773438 7.570312 6.773438 L 8.214844 6.808594 C 8.28125 6.808594 8.308594 6.890625 8.257812 6.941406 L 7.746094 7.339844 C 7.722656 7.363281 7.71875 7.394531 7.730469 7.425781 L 7.898438 8.035156 C 7.910156 8.070312 7.902344 8.101562 7.871094 8.121094 C 7.839844 8.144531 7.8125 8.144531 7.78125 8.121094 L 7.246094 7.773438 C 7.21875 7.753906 7.191406 7.753906 7.164062 7.773438 L 6.628906 8.121094 C 6.597656 8.144531 6.570312 8.144531 6.539062 8.121094 C 6.507812 8.101562 6.5 8.070312 6.511719 8.035156 L 6.679688 7.417969 C 6.691406 7.382812 6.683594 7.355469 6.652344 7.332031 L 6.152344 6.941406 C 6.125 6.921875 6.117188 6.894531 6.128906 6.859375 C 6.140625 6.828125 6.160156 6.808594 6.195312 6.808594 L 6.839844 6.773438 C 6.867188 6.773438 6.898438 6.753906 6.910156 6.722656 L 7.136719 6.128906 Z M 7.136719 6.121094 " fill-opacity="1" fill-rule="nonzero"/></g></g><g clip-path="url(#2a15904598)"><g clip-path="url(#c7c174b18e)"><path fill="#ef5350" d="M 7.460938 22.71875 L 22.71875 22.71875 L 22.71875 7.460938 L 7.460938 7.460938 Z M 7.460938 22.71875 " fill-opacity="1" fill-rule="nonzero"/></g></g><g clip-path="url(#a380da0423)"><g clip-path="url(#2c75555f5e)"><path fill="#1565c0" d="M 7.460938 15.089844 L 15.089844 15.089844 L 15.089844 7.460938 L 7.460938 7.460938 Z M 7.460938 15.089844 " fill-opacity="1" fill-rule="nonzero"/></g></g><g clip-path="url(#dbc2899a75)"><g clip-path="url(#446151a673)"><path fill="#f8f9fd" d="M 14.570312 11.300781 L 13.28125 11.894531 L 13.960938 13.148438 L 12.5625 12.875 L 12.394531 14.28125 L 11.417969 13.25 L 10.441406 14.28125 L 10.257812 12.882812 L 8.859375 13.15625 L 9.535156 11.910156 L 8.246094 11.308594 L 9.542969 10.699219 L 8.859375 9.460938 L 10.257812 9.722656 L 10.425781 8.308594 L 11.410156 9.339844 L 12.394531 8.308594 L 12.5625 9.714844 L 13.96875 9.453125 L 13.28125 10.6875 Z M 14.570312 11.300781 " fill-opacity="1" fill-rule="nonzero"/></g></g><g clip-path="url(#f591aab618)"><g clip-path="url(#96ffbb83c6)"><path fill="#1565c0" d="M 13.519531 11.300781 C 13.519531 11.578125 13.464844 11.847656 13.359375 12.105469 C 13.253906 12.363281 13.101562 12.589844 12.902344 12.789062 C 12.707031 12.984375 12.476562 13.136719 12.21875 13.246094 C 11.960938 13.351562 11.691406 13.40625 11.414062 13.40625 C 11.132812 13.40625 10.867188 13.351562 10.609375 13.246094 C 10.347656 13.136719 10.121094 12.984375 9.925781 12.789062 C 9.726562 12.589844 9.574219 12.363281 9.46875 12.105469 C 9.359375 11.847656 9.308594 11.578125 9.308594 11.300781 C 9.308594 11.019531 9.359375 10.75 9.46875 10.492188 C 9.574219 10.234375 9.726562 10.007812 9.925781 9.808594 C 10.121094 9.613281 10.347656 9.460938 10.609375 9.351562 C 10.867188 9.246094 11.132812 9.191406 11.414062 9.191406 C 11.691406 9.191406 11.960938 9.246094 12.21875 9.351562 C 12.476562 9.460938 12.707031 9.613281 12.902344 9.808594 C 13.101562 10.007812 13.253906 10.234375 13.359375 10.492188 C 13.464844 10.75 13.519531 11.019531 13.519531 11.300781 Z M 10.367188 11.300781 C 10.367188 11.4375 10.394531 11.574219 10.445312 11.703125 C 10.5 11.832031 10.574219 11.945312 10.675781 12.042969 C 10.773438 12.140625 10.886719 12.21875 11.015625 12.269531 C 11.144531 12.324219 11.277344 12.351562 11.417969 12.351562 C 11.558594 12.351562 11.691406 12.324219 11.820312 12.269531 C 11.949219 12.21875 12.0625 12.140625 12.160156 12.042969 C 12.257812 11.945312 12.335938 11.832031 12.390625 11.703125 C 12.441406 11.574219 12.46875 11.4375 12.46875 11.300781 C 12.46875 11.160156 12.441406 11.027344 12.390625 10.898438 C 12.335938 10.769531 12.257812 10.65625 12.160156 10.554688 C 12.0625 10.457031 11.949219 10.382812 11.820312 10.328125 C 11.691406 10.273438 11.558594 10.25 11.417969 10.25 C 11.277344 10.25 11.144531 10.273438 11.015625 10.328125 C 10.886719 10.382812 10.773438 10.457031 10.675781 10.554688 C 10.574219 10.65625 10.5 10.769531 10.445312 10.898438 C 10.394531 11.027344 10.367188 11.160156 10.367188 11.300781 Z M 10.367188 11.300781 " fill-opacity="1" fill-rule="nonzero"/></g></g></svg>