<svg xmlns="http://www.w3.org/2000/svg" xmlns:xlink="http://www.w3.org/1999/xlink" width="30" zoomAndPan="magnify" viewBox="0 0 22.5 22.5" height="30" preserveAspectRatio="xMidYMid meet" version="1.0"><defs><clipPath id="2158edb0c2"><path d="M 0 0 L 14.675781 0 L 14.675781 14.675781 L 0 14.675781 Z M 0 0 " clip-rule="nonzero"/></clipPath><clipPath id="55414956be"><path d="M 0 3.667969 L 0 11.003906 C 0 13.03125 1.640625 14.675781 3.667969 14.675781 L 11.003906 14.675781 C 13.03125 14.675781 14.675781 13.03125 14.675781 11.003906 L 14.675781 3.667969 C 14.675781 1.640625 13.03125 0 11.003906 0 L 3.667969 0 C 1.640625 0 0 1.640625 0 3.667969 Z M 0 3.667969 " clip-rule="nonzero"/></clipPath><clipPath id="11b742959a"><path d="M 0 0 L 9 0 L 9 9 L 0 9 Z M 0 0 " clip-rule="nonzero"/></clipPath><clipPath id="4f51d29513"><path d="M 0 3.667969 L 0 11.003906 C 0 13.03125 1.640625 14.675781 3.667969 14.675781 L 11.003906 14.675781 C 13.03125 14.675781 14.675781 13.03125 14.675781 11.003906 L 14.675781 3.667969 C 14.675781 1.640625 13.03125 0 11.003906 0 L 3.667969 0 C 1.640625 0 0 1.640625 0 3.667969 Z M 0 3.667969 " clip-rule="nonzero"/></clipPath><clipPath id="8580301677"><path d="M 1 0 L 8 0 L 8 8 L 1 8 Z M 1 0 " clip-rule="nonzero"/></clipPath><clipPath id="9247c9f3ea"><path d="M 0 3.667969 L 0 11.003906 C 0 13.03125 1.640625 14.675781 3.667969 14.675781 L 11.003906 14.675781 C 13.03125 14.675781 14.675781 13.03125 14.675781 11.003906 L 14.675781 3.667969 C 14.675781 1.640625 13.03125 0 11.003906 0 L 3.667969 0 C 1.640625 0 0 1.640625 0 3.667969 Z M 0 3.667969 " clip-rule="nonzero"/></clipPath><clipPath id="a43634f669"><path d="M 7.335938 7.335938 L 22.011719 7.335938 L 22.011719 22.011719 L 7.335938 22.011719 Z M 7.335938 7.335938 " clip-rule="nonzero"/></clipPath><clipPath id="901b41c92f"><path d="M 7.335938 11.003906 L 7.335938 18.34375 C 7.335938 20.367188 8.980469 22.011719 11.003906 22.011719 L 18.34375 22.011719 C 20.367188 22.011719 22.011719 20.367188 22.011719 18.34375 L 22.011719 11.003906 C 22.011719 8.980469 20.367188 7.335938 18.34375 7.335938 L 11.003906 7.335938 C 8.980469 7.335938 7.335938 8.980469 7.335938 11.003906 Z M 7.335938 11.003906 " clip-rule="nonzero"/></clipPath><clipPath id="b866fe51b1"><path d="M 11 11 L 18 11 L 18 16 L 11 16 Z M 11 11 " clip-rule="nonzero"/></clipPath><clipPath id="ac3537bc3b"><path d="M 7.335938 11.003906 L 7.335938 18.34375 C 7.335938 20.367188 8.980469 22.011719 11.003906 22.011719 L 18.34375 22.011719 C 20.367188 22.011719 22.011719 20.367188 22.011719 18.34375 L 22.011719 11.003906 C 22.011719 8.980469 20.367188 7.335938 18.34375 7.335938 L 11.003906 7.335938 C 8.980469 7.335938 7.335938 8.980469 7.335938 11.003906 Z M 7.335938 11.003906 " clip-rule="nonzero"/></clipPath><clipPath id="b7f894f5e3"><path d="M 11 13 L 18 13 L 18 18 L 11 18 Z M 11 13 " clip-rule="nonzero"/></clipPath><clipPath id="ac09768bc8"><path d="M 7.335938 11.003906 L 7.335938 18.34375 C 7.335938 20.367188 8.980469 22.011719 11.003906 22.011719 L 18.34375 22.011719 C 20.367188 22.011719 22.011719 20.367188 22.011719 18.34375 L 22.011719 11.003906 C 22.011719 8.980469 20.367188 7.335938 18.34375 7.335938 L 11.003906 7.335938 C 8.980469 7.335938 7.335938 8.980469 7.335938 11.003906 Z M 7.335938 11.003906 " clip-rule="nonzero"/></clipPath><clipPath id="3f43cfdeb0"><path d="M 8 10 L 21 10 L 21 20 L 8 20 Z M 8 10 " clip-rule="nonzero"/></clipPath><clipPath id="67a895cf12"><path d="M 7.335938 11.003906 L 7.335938 18.34375 C 7.335938 20.367188 8.980469 22.011719 11.003906 22.011719 L 18.34375 22.011719 C 20.367188 22.011719 22.011719 20.367188 22.011719 18.34375 L 22.011719 11.003906 C 22.011719 8.980469 20.367188 7.335938 18.34375 7.335938 L 11.003906 7.335938 C 8.980469 7.335938 7.335938 8.980469 7.335938 11.003906 Z M 7.335938 11.003906 " clip-rule="nonzero"/></clipPath></defs><g clip-path="url(#2158edb0c2)"><g clip-path="url(#55414956be)"><path fill="#f8f9fd" d="M 0 0 L 14.675781 0 L 14.675781 14.675781 L 0 14.675781 Z M 0 0 " fill-opacity="1" fill-rule="nonzero"/><path fill="#ef5350" d="M 8.96875 3.261719 L 14.675781 3.261719 L 14.675781 0 L 8.96875 0 Z M 0 14.675781 L 14.675781 14.675781 L 14.675781 11.414062 L 0 11.414062 Z M 8.96875 8.96875 L 14.675781 8.96875 L 14.675781 5.707031 L 8.96875 5.707031 Z M 8.96875 8.96875 " fill-opacity="1" fill-rule="nonzero"/></g></g><g clip-path="url(#11b742959a)"><g clip-path="url(#4f51d29513)"><path fill="#1e88e9" d="M 0 0 L 8.96875 0 L 8.96875 8.96875 L 0 8.96875 Z M 0 0 " fill-opacity="1" fill-rule="nonzero"/></g></g><g clip-path="url(#8580301677)"><g clip-path="url(#9247c9f3ea)"><path fill="#f8f9fd" d="M 1.972656 0.996094 C 1.988281 0.96875 2.007812 0.953125 2.039062 0.953125 C 2.066406 0.953125 2.089844 0.96875 2.101562 0.996094 L 2.324219 1.574219 C 2.332031 1.605469 2.363281 1.621094 2.386719 1.621094 L 3.007812 1.65625 C 3.074219 1.65625 3.097656 1.738281 3.050781 1.785156 L 2.558594 2.167969 C 2.535156 2.191406 2.53125 2.21875 2.542969 2.25 L 2.707031 2.835938 C 2.71875 2.871094 2.707031 2.898438 2.679688 2.917969 C 2.648438 2.941406 2.621094 2.941406 2.59375 2.917969 L 2.078125 2.585938 C 2.050781 2.566406 2.023438 2.566406 1.996094 2.585938 L 1.484375 2.917969 C 1.453125 2.941406 1.425781 2.941406 1.398438 2.917969 C 1.367188 2.898438 1.359375 2.871094 1.371094 2.835938 L 1.53125 2.242188 C 1.542969 2.207031 1.535156 2.183594 1.507812 2.160156 L 1.027344 1.785156 C 1 1.765625 0.992188 1.738281 1.003906 1.707031 C 1.011719 1.675781 1.035156 1.65625 1.066406 1.65625 L 1.6875 1.621094 C 1.710938 1.621094 1.746094 1.605469 1.753906 1.574219 L 1.972656 1.003906 Z M 1.972656 3.441406 C 1.988281 3.414062 2.007812 3.402344 2.039062 3.402344 C 2.066406 3.402344 2.089844 3.414062 2.101562 3.441406 L 2.324219 4.019531 C 2.332031 4.050781 2.363281 4.066406 2.386719 4.066406 L 3.007812 4.101562 C 3.074219 4.101562 3.097656 4.183594 3.050781 4.230469 L 2.558594 4.613281 C 2.535156 4.636719 2.53125 4.664062 2.542969 4.695312 L 2.707031 5.28125 C 2.71875 5.316406 2.707031 5.34375 2.679688 5.367188 C 2.648438 5.386719 2.621094 5.386719 2.59375 5.363281 L 2.078125 5.03125 C 2.050781 5.011719 2.023438 5.011719 1.996094 5.03125 L 1.484375 5.363281 C 1.453125 5.386719 1.425781 5.386719 1.398438 5.367188 C 1.367188 5.34375 1.359375 5.316406 1.371094 5.28125 L 1.53125 4.6875 C 1.542969 4.65625 1.535156 4.628906 1.507812 4.605469 L 1.027344 4.230469 C 1 4.210938 0.992188 4.183594 1.003906 4.152344 C 1.011719 4.121094 1.035156 4.101562 1.066406 4.101562 L 1.6875 4.066406 C 1.710938 4.066406 1.746094 4.050781 1.753906 4.019531 L 1.972656 3.449219 Z M 1.972656 5.886719 C 1.988281 5.859375 2.007812 5.847656 2.039062 5.847656 C 2.066406 5.847656 2.089844 5.859375 2.101562 5.886719 L 2.324219 6.464844 C 2.332031 6.496094 2.363281 6.511719 2.386719 6.511719 L 3.007812 6.546875 C 3.074219 6.546875 3.097656 6.628906 3.050781 6.675781 L 2.558594 7.058594 C 2.535156 7.082031 2.53125 7.109375 2.542969 7.140625 L 2.707031 7.726562 C 2.71875 7.761719 2.707031 7.789062 2.679688 7.8125 C 2.648438 7.832031 2.621094 7.832031 2.59375 7.808594 L 2.078125 7.476562 C 2.050781 7.457031 2.023438 7.457031 1.996094 7.476562 L 1.484375 7.808594 C 1.453125 7.832031 1.425781 7.832031 1.398438 7.8125 C 1.367188 7.789062 1.359375 7.761719 1.371094 7.726562 L 1.53125 7.132812 C 1.542969 7.101562 1.535156 7.074219 1.507812 7.050781 L 1.027344 6.675781 C 1 6.65625 0.992188 6.628906 1.003906 6.597656 C 1.011719 6.566406 1.035156 6.546875 1.066406 6.546875 L 1.6875 6.511719 C 1.710938 6.511719 1.746094 6.496094 1.753906 6.464844 L 1.972656 5.894531 Z M 4.417969 0.996094 C 4.433594 0.96875 4.453125 0.953125 4.484375 0.953125 C 4.511719 0.953125 4.535156 0.96875 4.550781 0.996094 L 4.769531 1.574219 C 4.777344 1.605469 4.808594 1.621094 4.835938 1.621094 L 5.453125 1.65625 C 5.519531 1.65625 5.542969 1.738281 5.496094 1.785156 L 5.003906 2.167969 C 4.980469 2.191406 4.976562 2.21875 4.988281 2.25 L 5.152344 2.835938 C 5.164062 2.871094 5.15625 2.898438 5.125 2.917969 C 5.097656 2.941406 5.066406 2.941406 5.039062 2.917969 L 4.523438 2.585938 C 4.496094 2.566406 4.46875 2.566406 4.441406 2.585938 L 3.929688 2.917969 C 3.902344 2.941406 3.871094 2.941406 3.84375 2.917969 C 3.8125 2.898438 3.804688 2.871094 3.816406 2.835938 L 3.976562 2.242188 C 3.988281 2.207031 3.980469 2.183594 3.953125 2.160156 L 3.472656 1.785156 C 3.445312 1.765625 3.4375 1.738281 3.449219 1.707031 C 3.457031 1.675781 3.480469 1.65625 3.511719 1.65625 L 4.132812 1.621094 C 4.15625 1.621094 4.191406 1.605469 4.199219 1.574219 L 4.417969 1.003906 Z M 4.417969 3.441406 C 4.433594 3.414062 4.453125 3.402344 4.484375 3.402344 C 4.511719 3.402344 4.535156 3.414062 4.550781 3.441406 L 4.769531 4.019531 C 4.777344 4.050781 4.808594 4.066406 4.835938 4.066406 L 5.453125 4.101562 C 5.519531 4.101562 5.542969 4.183594 5.496094 4.230469 L 5.003906 4.613281 C 4.980469 4.636719 4.976562 4.664062 4.988281 4.695312 L 5.152344 5.28125 C 5.164062 5.316406 5.15625 5.34375 5.125 5.367188 C 5.097656 5.386719 5.066406 5.386719 5.039062 5.363281 L 4.523438 5.03125 C 4.496094 5.011719 4.46875 5.011719 4.441406 5.03125 L 3.929688 5.363281 C 3.902344 5.386719 3.871094 5.386719 3.84375 5.367188 C 3.8125 5.34375 3.804688 5.316406 3.816406 5.28125 L 3.976562 4.6875 C 3.988281 4.65625 3.980469 4.628906 3.953125 4.605469 L 3.472656 4.230469 C 3.445312 4.210938 3.4375 4.183594 3.449219 4.152344 C 3.457031 4.121094 3.480469 4.101562 3.511719 4.101562 L 4.132812 4.066406 C 4.15625 4.066406 4.191406 4.050781 4.199219 4.019531 L 4.417969 3.449219 Z M 4.417969 5.886719 C 4.433594 5.859375 4.453125 5.847656 4.484375 5.847656 C 4.511719 5.847656 4.535156 5.859375 4.550781 5.886719 L 4.769531 6.464844 C 4.777344 6.496094 4.808594 6.511719 4.835938 6.511719 L 5.453125 6.546875 C 5.519531 6.546875 5.542969 6.628906 5.496094 6.675781 L 5.003906 7.058594 C 4.980469 7.082031 4.976562 7.109375 4.988281 7.140625 L 5.152344 7.726562 C 5.164062 7.761719 5.15625 7.789062 5.125 7.8125 C 5.097656 7.832031 5.066406 7.832031 5.039062 7.808594 L 4.523438 7.476562 C 4.496094 7.457031 4.46875 7.457031 4.441406 7.476562 L 3.929688 7.808594 C 3.902344 7.832031 3.871094 7.832031 3.84375 7.8125 C 3.8125 7.789062 3.804688 7.761719 3.816406 7.726562 L 3.976562 7.132812 C 3.988281 7.101562 3.980469 7.074219 3.953125 7.050781 L 3.472656 6.675781 C 3.445312 6.65625 3.4375 6.628906 3.449219 6.597656 C 3.457031 6.566406 3.480469 6.546875 3.511719 6.546875 L 4.132812 6.511719 C 4.15625 6.511719 4.191406 6.496094 4.199219 6.464844 L 4.417969 5.894531 Z M 6.863281 0.996094 C 6.878906 0.96875 6.898438 0.953125 6.929688 0.953125 C 6.960938 0.953125 6.980469 0.96875 6.996094 0.996094 L 7.214844 1.574219 C 7.222656 1.605469 7.253906 1.621094 7.28125 1.621094 L 7.898438 1.65625 C 7.964844 1.65625 7.988281 1.738281 7.941406 1.785156 L 7.449219 2.167969 C 7.425781 2.191406 7.421875 2.21875 7.433594 2.25 L 7.597656 2.835938 C 7.609375 2.871094 7.601562 2.898438 7.570312 2.917969 C 7.542969 2.941406 7.511719 2.941406 7.484375 2.917969 L 6.96875 2.585938 C 6.941406 2.566406 6.914062 2.566406 6.886719 2.585938 L 6.375 2.917969 C 6.347656 2.941406 6.316406 2.941406 6.289062 2.917969 C 6.257812 2.898438 6.25 2.871094 6.261719 2.835938 L 6.425781 2.242188 C 6.433594 2.207031 6.425781 2.183594 6.398438 2.160156 L 5.917969 1.785156 C 5.890625 1.765625 5.882812 1.738281 5.894531 1.707031 C 5.90625 1.675781 5.925781 1.65625 5.960938 1.65625 L 6.578125 1.621094 C 6.601562 1.621094 6.636719 1.605469 6.644531 1.574219 L 6.863281 1.003906 Z M 6.863281 3.441406 C 6.878906 3.414062 6.898438 3.402344 6.929688 3.402344 C 6.960938 3.402344 6.980469 3.414062 6.996094 3.441406 L 7.214844 4.019531 C 7.222656 4.050781 7.253906 4.066406 7.28125 4.066406 L 7.898438 4.101562 C 7.964844 4.101562 7.988281 4.183594 7.941406 4.230469 L 7.449219 4.613281 C 7.425781 4.636719 7.421875 4.664062 7.433594 4.695312 L 7.597656 5.28125 C 7.609375 5.316406 7.601562 5.34375 7.570312 5.367188 C 7.542969 5.386719 7.511719 5.386719 7.484375 5.363281 L 6.96875 5.03125 C 6.941406 5.011719 6.914062 5.011719 6.886719 5.03125 L 6.375 5.363281 C 6.347656 5.386719 6.316406 5.386719 6.289062 5.367188 C 6.257812 5.34375 6.25 5.316406 6.261719 5.28125 L 6.425781 4.6875 C 6.433594 4.65625 6.425781 4.628906 6.398438 4.605469 L 5.917969 4.230469 C 5.890625 4.210938 5.882812 4.183594 5.894531 4.152344 C 5.90625 4.121094 5.925781 4.101562 5.960938 4.101562 L 6.578125 4.066406 C 6.601562 4.066406 6.636719 4.050781 6.644531 4.019531 L 6.863281 3.449219 Z M 6.863281 5.886719 C 6.878906 5.859375 6.898438 5.847656 6.929688 5.847656 C 6.960938 5.847656 6.980469 5.859375 6.996094 5.886719 L 7.214844 6.464844 C 7.222656 6.496094 7.253906 6.511719 7.28125 6.511719 L 7.898438 6.546875 C 7.964844 6.546875 7.988281 6.628906 7.941406 6.675781 L 7.449219 7.058594 C 7.425781 7.082031 7.421875 7.109375 7.433594 7.140625 L 7.597656 7.726562 C 7.609375 7.761719 7.601562 7.789062 7.570312 7.8125 C 7.542969 7.832031 7.511719 7.832031 7.484375 7.808594 L 6.96875 7.476562 C 6.941406 7.457031 6.914062 7.457031 6.886719 7.476562 L 6.375 7.808594 C 6.347656 7.832031 6.316406 7.832031 6.289062 7.8125 C 6.257812 7.789062 6.25 7.761719 6.261719 7.726562 L 6.425781 7.132812 C 6.433594 7.101562 6.425781 7.074219 6.398438 7.050781 L 5.917969 6.675781 C 5.890625 6.65625 5.882812 6.628906 5.894531 6.597656 C 5.90625 6.566406 5.925781 6.546875 5.960938 6.546875 L 6.578125 6.511719 C 6.601562 6.511719 6.636719 6.496094 6.644531 6.464844 L 6.863281 5.894531 Z M 6.863281 5.886719 " fill-opacity="1" fill-rule="nonzero"/></g></g><g clip-path="url(#a43634f669)"><g clip-path="url(#901b41c92f)"><path fill="#f0f3fa" d="M 7.335938 7.335938 L 22.011719 7.335938 L 22.011719 22.011719 L 7.335938 22.011719 Z M 7.335938 7.335938 " fill-opacity="1" fill-rule="nonzero"/></g></g><g clip-path="url(#b866fe51b1)"><g clip-path="url(#ac3537bc3b)"><path fill="#ef5350" d="M 17.527344 14.085938 C 17.566406 14.371094 17.265625 13.476562 16.425781 13.328125 C 15.613281 13.15625 14.796875 13.65625 14.59375 14.46875 C 14.546875 14.640625 14.46875 14.800781 14.363281 14.941406 C 14.257812 15.085938 14.128906 15.203125 13.976562 15.296875 C 13.824219 15.390625 13.660156 15.449219 13.484375 15.480469 C 13.3125 15.511719 13.136719 15.507812 12.960938 15.472656 C 12.789062 15.449219 12.625 15.390625 12.472656 15.300781 C 12.320312 15.210938 12.191406 15.09375 12.089844 14.953125 C 11.984375 14.8125 11.910156 14.65625 11.871094 14.484375 C 11.828125 14.3125 11.824219 14.136719 11.851562 13.964844 C 11.945312 13.605469 12.101562 13.277344 12.320312 12.976562 C 12.539062 12.679688 12.804688 12.433594 13.117188 12.234375 C 13.433594 12.039062 13.773438 11.910156 14.136719 11.84375 C 14.503906 11.78125 14.867188 11.785156 15.226562 11.863281 C 15.804688 11.949219 16.308594 12.195312 16.726562 12.601562 C 17.148438 13.007812 17.417969 13.496094 17.527344 14.070312 Z M 17.527344 14.085938 " fill-opacity="1" fill-rule="nonzero"/></g></g><g clip-path="url(#b7f894f5e3)"><g clip-path="url(#ac09768bc8)"><path fill="#1565c0" d="M 14.128906 17.476562 C 13.546875 17.390625 13.042969 17.144531 12.621094 16.738281 C 12.195312 16.332031 11.929688 15.839844 11.820312 15.261719 C 11.773438 14.976562 12.066406 15.871094 12.914062 16.019531 C 13.726562 16.191406 14.542969 15.691406 14.746094 14.878906 C 14.792969 14.707031 14.867188 14.546875 14.972656 14.402344 C 15.082031 14.261719 15.210938 14.140625 15.359375 14.046875 C 15.511719 13.953125 15.675781 13.890625 15.851562 13.859375 C 16.027344 13.828125 16.203125 13.832031 16.378906 13.867188 C 16.550781 13.890625 16.710938 13.945312 16.859375 14.03125 C 17.007812 14.117188 17.136719 14.226562 17.242188 14.363281 C 17.347656 14.5 17.421875 14.652344 17.46875 14.820312 C 17.511719 14.984375 17.523438 15.15625 17.503906 15.324219 L 17.496094 15.375 C 17.402344 15.734375 17.246094 16.0625 17.027344 16.363281 C 16.808594 16.660156 16.542969 16.90625 16.230469 17.101562 C 15.914062 17.300781 15.574219 17.429688 15.210938 17.496094 C 14.847656 17.558594 14.480469 17.554688 14.121094 17.476562 Z M 14.128906 17.476562 " fill-opacity="1" fill-rule="nonzero"/></g></g><g clip-path="url(#3f43cfdeb0)"><g clip-path="url(#67a895cf12)"><path fill="#2a2e39" d="M 10.53125 19.15625 L 8.96875 16.476562 L 9.457031 16.230469 L 11.023438 18.90625 L 10.53125 19.148438 Z M 11.503906 18.667969 L 9.929688 16.003906 L 10.417969 15.757812 L 11.984375 18.433594 L 11.496094 18.675781 Z M 18.816406 19.074219 L 20.378906 16.320312 L 19.890625 16.074219 L 18.335938 18.832031 Z M 17.84375 18.585938 L 19.417969 15.824219 L 18.929688 15.578125 L 17.363281 18.335938 L 17.851562 18.578125 Z M 10.515625 10.191406 L 8.96875 12.816406 L 9.449219 13.058594 L 10.996094 10.433594 L 10.515625 10.199219 Z M 11.46875 10.664062 L 9.921875 13.289062 L 10.402344 13.53125 L 11.949219 10.90625 L 11.46875 10.671875 Z M 18.691406 10.261719 L 20.242188 12.96875 L 19.769531 13.214844 L 18.21875 10.507812 Z M 17.738281 10.753906 L 19.289062 13.460938 L 18.808594 13.703125 L 17.257812 10.996094 L 17.746094 10.753906 Z M 17.738281 10.753906 " fill-opacity="1" fill-rule="nonzero"/></g></g></svg>