<svg xmlns="http://www.w3.org/2000/svg" xmlns:xlink="http://www.w3.org/1999/xlink" width="30" zoomAndPan="magnify" viewBox="0 0 22.5 22.5" height="30" preserveAspectRatio="xMidYMid meet" version="1.0"><defs><clipPath id="7e27de7648"><path d="M 0 0 L 14.675781 0 L 14.675781 14.675781 L 0 14.675781 Z M 0 0 " clip-rule="nonzero"/></clipPath><clipPath id="7fdccc5238"><path d="M 0 3.667969 L 0 11.003906 C 0 13.03125 1.640625 14.675781 3.667969 14.675781 L 11.003906 14.675781 C 13.03125 14.675781 14.675781 13.03125 14.675781 11.003906 L 14.675781 3.667969 C 14.675781 1.640625 13.03125 0 11.003906 0 L 3.667969 0 C 1.640625 0 0 1.640625 0 3.667969 Z M 0 3.667969 " clip-rule="nonzero"/></clipPath><clipPath id="6f242464ac"><path d="M 0 0 L 9 0 L 9 9 L 0 9 Z M 0 0 " clip-rule="nonzero"/></clipPath><clipPath id="2678ef97ba"><path d="M 0 3.667969 L 0 11.003906 C 0 13.03125 1.640625 14.675781 3.667969 14.675781 L 11.003906 14.675781 C 13.03125 14.675781 14.675781 13.03125 14.675781 11.003906 L 14.675781 3.667969 C 14.675781 1.640625 13.03125 0 11.003906 0 L 3.667969 0 C 1.640625 0 0 1.640625 0 3.667969 Z M 0 3.667969 " clip-rule="nonzero"/></clipPath><clipPath id="b20683795b"><path d="M 1 0 L 8 0 L 8 8 L 1 8 Z M 1 0 " clip-rule="nonzero"/></clipPath><clipPath id="bed9c802c9"><path d="M 0 3.667969 L 0 11.003906 C 0 13.03125 1.640625 14.675781 3.667969 14.675781 L 11.003906 14.675781 C 13.03125 14.675781 14.675781 13.03125 14.675781 11.003906 L 14.675781 3.667969 C 14.675781 1.640625 13.03125 0 11.003906 0 L 3.667969 0 C 1.640625 0 0 1.640625 0 3.667969 Z M 0 3.667969 " clip-rule="nonzero"/></clipPath><clipPath id="38556f97b9"><path d="M 17 7.335938 L 22.011719 7.335938 L 22.011719 22.011719 L 17 22.011719 Z M 17 7.335938 " clip-rule="nonzero"/></clipPath><clipPath id="90c0b68410"><path d="M 7.335938 11.003906 L 7.335938 18.34375 C 7.335938 20.367188 8.980469 22.011719 11.003906 22.011719 L 18.34375 22.011719 C 20.367188 22.011719 22.011719 20.367188 22.011719 18.34375 L 22.011719 11.003906 C 22.011719 8.980469 20.367188 7.335938 18.34375 7.335938 L 11.003906 7.335938 C 8.980469 7.335938 7.335938 8.980469 7.335938 11.003906 Z M 7.335938 11.003906 " clip-rule="nonzero"/></clipPath><clipPath id="5dccb53bcf"><path d="M 11 7.335938 L 18 7.335938 L 18 22.011719 L 11 22.011719 Z M 11 7.335938 " clip-rule="nonzero"/></clipPath><clipPath id="b120993191"><path d="M 7.335938 11.003906 L 7.335938 18.34375 C 7.335938 20.367188 8.980469 22.011719 11.003906 22.011719 L 18.34375 22.011719 C 20.367188 22.011719 22.011719 20.367188 22.011719 18.34375 L 22.011719 11.003906 C 22.011719 8.980469 20.367188 7.335938 18.34375 7.335938 L 11.003906 7.335938 C 8.980469 7.335938 7.335938 8.980469 7.335938 11.003906 Z M 7.335938 11.003906 " clip-rule="nonzero"/></clipPath><clipPath id="b179f9fdab"><path d="M 12 13 L 18 13 L 18 16 L 12 16 Z M 12 13 " clip-rule="nonzero"/></clipPath><clipPath id="b5859d0950"><path d="M 7.335938 11.003906 L 7.335938 18.34375 C 7.335938 20.367188 8.980469 22.011719 11.003906 22.011719 L 18.34375 22.011719 C 20.367188 22.011719 22.011719 20.367188 22.011719 18.34375 L 22.011719 11.003906 C 22.011719 8.980469 20.367188 7.335938 18.34375 7.335938 L 11.003906 7.335938 C 8.980469 7.335938 7.335938 8.980469 7.335938 11.003906 Z M 7.335938 11.003906 " clip-rule="nonzero"/></clipPath><clipPath id="b80a8491c6"><path d="M 7.335938 7.335938 L 12 7.335938 L 12 22.011719 L 7.335938 22.011719 Z M 7.335938 7.335938 " clip-rule="nonzero"/></clipPath><clipPath id="73bd644f6a"><path d="M 7.335938 11.003906 L 7.335938 18.34375 C 7.335938 20.367188 8.980469 22.011719 11.003906 22.011719 L 18.34375 22.011719 C 20.367188 22.011719 22.011719 20.367188 22.011719 18.34375 L 22.011719 11.003906 C 22.011719 8.980469 20.367188 7.335938 18.34375 7.335938 L 11.003906 7.335938 C 8.980469 7.335938 7.335938 8.980469 7.335938 11.003906 Z M 7.335938 11.003906 " clip-rule="nonzero"/></clipPath></defs><g clip-path="url(#7e27de7648)"><g clip-path="url(#7fdccc5238)"><path fill="#f8f9fd" d="M 0 0 L 14.675781 0 L 14.675781 14.675781 L 0 14.675781 Z M 0 0 " fill-opacity="1" fill-rule="nonzero"/><path fill="#ef5350" d="M 8.96875 3.261719 L 14.675781 3.261719 L 14.675781 0 L 8.96875 0 Z M 0 14.675781 L 14.675781 14.675781 L 14.675781 11.414062 L 0 11.414062 Z M 8.96875 8.96875 L 14.675781 8.96875 L 14.675781 5.707031 L 8.96875 5.707031 Z M 8.96875 8.96875 " fill-opacity="1" fill-rule="nonzero"/></g></g><g clip-path="url(#6f242464ac)"><g clip-path="url(#2678ef97ba)"><path fill="#1e88e9" d="M 0 0 L 8.96875 0 L 8.96875 8.96875 L 0 8.96875 Z M 0 0 " fill-opacity="1" fill-rule="nonzero"/></g></g><g clip-path="url(#b20683795b)"><g clip-path="url(#bed9c802c9)"><path fill="#f8f9fd" d="M 1.972656 0.996094 C 1.988281 0.96875 2.007812 0.953125 2.039062 0.953125 C 2.066406 0.953125 2.089844 0.96875 2.101562 0.996094 L 2.324219 1.574219 C 2.332031 1.605469 2.363281 1.621094 2.386719 1.621094 L 3.007812 1.65625 C 3.074219 1.65625 3.097656 1.738281 3.050781 1.785156 L 2.558594 2.167969 C 2.535156 2.191406 2.53125 2.21875 2.542969 2.25 L 2.707031 2.835938 C 2.71875 2.871094 2.707031 2.898438 2.679688 2.917969 C 2.648438 2.941406 2.621094 2.941406 2.59375 2.917969 L 2.078125 2.585938 C 2.050781 2.566406 2.023438 2.566406 1.996094 2.585938 L 1.484375 2.917969 C 1.453125 2.941406 1.425781 2.941406 1.398438 2.917969 C 1.367188 2.898438 1.359375 2.871094 1.371094 2.835938 L 1.53125 2.242188 C 1.542969 2.207031 1.535156 2.183594 1.507812 2.160156 L 1.027344 1.785156 C 1 1.765625 0.992188 1.738281 1.003906 1.707031 C 1.011719 1.675781 1.035156 1.65625 1.066406 1.65625 L 1.6875 1.621094 C 1.710938 1.621094 1.746094 1.605469 1.753906 1.574219 L 1.972656 1.003906 Z M 1.972656 3.441406 C 1.988281 3.414062 2.007812 3.402344 2.039062 3.402344 C 2.066406 3.402344 2.089844 3.414062 2.101562 3.441406 L 2.324219 4.019531 C 2.332031 4.050781 2.363281 4.066406 2.386719 4.066406 L 3.007812 4.101562 C 3.074219 4.101562 3.097656 4.183594 3.050781 4.230469 L 2.558594 4.613281 C 2.535156 4.636719 2.53125 4.664062 2.542969 4.695312 L 2.707031 5.28125 C 2.71875 5.316406 2.707031 5.34375 2.679688 5.367188 C 2.648438 5.386719 2.621094 5.386719 2.59375 5.363281 L 2.078125 5.03125 C 2.050781 5.011719 2.023438 5.011719 1.996094 5.03125 L 1.484375 5.363281 C 1.453125 5.386719 1.425781 5.386719 1.398438 5.367188 C 1.367188 5.34375 1.359375 5.316406 1.371094 5.28125 L 1.53125 4.6875 C 1.542969 4.65625 1.535156 4.628906 1.507812 4.605469 L 1.027344 4.230469 C 1 4.210938 0.992188 4.183594 1.003906 4.152344 C 1.011719 4.121094 1.035156 4.101562 1.066406 4.101562 L 1.6875 4.066406 C 1.710938 4.066406 1.746094 4.050781 1.753906 4.019531 L 1.972656 3.449219 Z M 1.972656 5.886719 C 1.988281 5.859375 2.007812 5.847656 2.039062 5.847656 C 2.066406 5.847656 2.089844 5.859375 2.101562 5.886719 L 2.324219 6.464844 C 2.332031 6.496094 2.363281 6.511719 2.386719 6.511719 L 3.007812 6.546875 C 3.074219 6.546875 3.097656 6.628906 3.050781 6.675781 L 2.558594 7.058594 C 2.535156 7.082031 2.53125 7.109375 2.542969 7.140625 L 2.707031 7.726562 C 2.71875 7.761719 2.707031 7.789062 2.679688 7.8125 C 2.648438 7.832031 2.621094 7.832031 2.59375 7.808594 L 2.078125 7.476562 C 2.050781 7.457031 2.023438 7.457031 1.996094 7.476562 L 1.484375 7.808594 C 1.453125 7.832031 1.425781 7.832031 1.398438 7.8125 C 1.367188 7.789062 1.359375 7.761719 1.371094 7.726562 L 1.53125 7.132812 C 1.542969 7.101562 1.535156 7.074219 1.507812 7.050781 L 1.027344 6.675781 C 1 6.65625 0.992188 6.628906 1.003906 6.597656 C 1.011719 6.566406 1.035156 6.546875 1.066406 6.546875 L 1.6875 6.511719 C 1.710938 6.511719 1.746094 6.496094 1.753906 6.464844 L 1.972656 5.894531 Z M 4.417969 0.996094 C 4.433594 0.96875 4.453125 0.953125 4.484375 0.953125 C 4.511719 0.953125 4.535156 0.96875 4.550781 0.996094 L 4.769531 1.574219 C 4.777344 1.605469 4.808594 1.621094 4.835938 1.621094 L 5.453125 1.65625 C 5.519531 1.65625 5.542969 1.738281 5.496094 1.785156 L 5.003906 2.167969 C 4.980469 2.191406 4.976562 2.21875 4.988281 2.25 L 5.152344 2.835938 C 5.164062 2.871094 5.15625 2.898438 5.125 2.917969 C 5.097656 2.941406 5.066406 2.941406 5.039062 2.917969 L 4.523438 2.585938 C 4.496094 2.566406 4.46875 2.566406 4.441406 2.585938 L 3.929688 2.917969 C 3.902344 2.941406 3.871094 2.941406 3.84375 2.917969 C 3.8125 2.898438 3.804688 2.871094 3.816406 2.835938 L 3.976562 2.242188 C 3.988281 2.207031 3.980469 2.183594 3.953125 2.160156 L 3.472656 1.785156 C 3.445312 1.765625 3.4375 1.738281 3.449219 1.707031 C 3.457031 1.675781 3.480469 1.65625 3.511719 1.65625 L 4.132812 1.621094 C 4.15625 1.621094 4.191406 1.605469 4.199219 1.574219 L 4.417969 1.003906 Z M 4.417969 3.441406 C 4.433594 3.414062 4.453125 3.402344 4.484375 3.402344 C 4.511719 3.402344 4.535156 3.414062 4.550781 3.441406 L 4.769531 4.019531 C 4.777344 4.050781 4.808594 4.066406 4.835938 4.066406 L 5.453125 4.101562 C 5.519531 4.101562 5.542969 4.183594 5.496094 4.230469 L 5.003906 4.613281 C 4.980469 4.636719 4.976562 4.664062 4.988281 4.695312 L 5.152344 5.28125 C 5.164062 5.316406 5.15625 5.34375 5.125 5.367188 C 5.097656 5.386719 5.066406 5.386719 5.039062 5.363281 L 4.523438 5.03125 C 4.496094 5.011719 4.46875 5.011719 4.441406 5.03125 L 3.929688 5.363281 C 3.902344 5.386719 3.871094 5.386719 3.84375 5.367188 C 3.8125 5.34375 3.804688 5.316406 3.816406 5.28125 L 3.976562 4.6875 C 3.988281 4.65625 3.980469 4.628906 3.953125 4.605469 L 3.472656 4.230469 C 3.445312 4.210938 3.4375 4.183594 3.449219 4.152344 C 3.457031 4.121094 3.480469 4.101562 3.511719 4.101562 L 4.132812 4.066406 C 4.15625 4.066406 4.191406 4.050781 4.199219 4.019531 L 4.417969 3.449219 Z M 4.417969 5.886719 C 4.433594 5.859375 4.453125 5.847656 4.484375 5.847656 C 4.511719 5.847656 4.535156 5.859375 4.550781 5.886719 L 4.769531 6.464844 C 4.777344 6.496094 4.808594 6.511719 4.835938 6.511719 L 5.453125 6.546875 C 5.519531 6.546875 5.542969 6.628906 5.496094 6.675781 L 5.003906 7.058594 C 4.980469 7.082031 4.976562 7.109375 4.988281 7.140625 L 5.152344 7.726562 C 5.164062 7.761719 5.15625 7.789062 5.125 7.8125 C 5.097656 7.832031 5.066406 7.832031 5.039062 7.808594 L 4.523438 7.476562 C 4.496094 7.457031 4.46875 7.457031 4.441406 7.476562 L 3.929688 7.808594 C 3.902344 7.832031 3.871094 7.832031 3.84375 7.8125 C 3.8125 7.789062 3.804688 7.761719 3.816406 7.726562 L 3.976562 7.132812 C 3.988281 7.101562 3.980469 7.074219 3.953125 7.050781 L 3.472656 6.675781 C 3.445312 6.65625 3.4375 6.628906 3.449219 6.597656 C 3.457031 6.566406 3.480469 6.546875 3.511719 6.546875 L 4.132812 6.511719 C 4.15625 6.511719 4.191406 6.496094 4.199219 6.464844 L 4.417969 5.894531 Z M 6.863281 0.996094 C 6.878906 0.96875 6.898438 0.953125 6.929688 0.953125 C 6.960938 0.953125 6.980469 0.96875 6.996094 0.996094 L 7.214844 1.574219 C 7.222656 1.605469 7.253906 1.621094 7.28125 1.621094 L 7.898438 1.65625 C 7.964844 1.65625 7.988281 1.738281 7.941406 1.785156 L 7.449219 2.167969 C 7.425781 2.191406 7.421875 2.21875 7.433594 2.25 L 7.597656 2.835938 C 7.609375 2.871094 7.601562 2.898438 7.570312 2.917969 C 7.542969 2.941406 7.511719 2.941406 7.484375 2.917969 L 6.96875 2.585938 C 6.941406 2.566406 6.914062 2.566406 6.886719 2.585938 L 6.375 2.917969 C 6.347656 2.941406 6.316406 2.941406 6.289062 2.917969 C 6.257812 2.898438 6.25 2.871094 6.261719 2.835938 L 6.425781 2.242188 C 6.433594 2.207031 6.425781 2.183594 6.398438 2.160156 L 5.917969 1.785156 C 5.890625 1.765625 5.882812 1.738281 5.894531 1.707031 C 5.90625 1.675781 5.925781 1.65625 5.960938 1.65625 L 6.578125 1.621094 C 6.601562 1.621094 6.636719 1.605469 6.644531 1.574219 L 6.863281 1.003906 Z M 6.863281 3.441406 C 6.878906 3.414062 6.898438 3.402344 6.929688 3.402344 C 6.960938 3.402344 6.980469 3.414062 6.996094 3.441406 L 7.214844 4.019531 C 7.222656 4.050781 7.253906 4.066406 7.28125 4.066406 L 7.898438 4.101562 C 7.964844 4.101562 7.988281 4.183594 7.941406 4.230469 L 7.449219 4.613281 C 7.425781 4.636719 7.421875 4.664062 7.433594 4.695312 L 7.597656 5.28125 C 7.609375 5.316406 7.601562 5.34375 7.570312 5.367188 C 7.542969 5.386719 7.511719 5.386719 7.484375 5.363281 L 6.96875 5.03125 C 6.941406 5.011719 6.914062 5.011719 6.886719 5.03125 L 6.375 5.363281 C 6.347656 5.386719 6.316406 5.386719 6.289062 5.367188 C 6.257812 5.34375 6.25 5.316406 6.261719 5.28125 L 6.425781 4.6875 C 6.433594 4.65625 6.425781 4.628906 6.398438 4.605469 L 5.917969 4.230469 C 5.890625 4.210938 5.882812 4.183594 5.894531 4.152344 C 5.90625 4.121094 5.925781 4.101562 5.960938 4.101562 L 6.578125 4.066406 C 6.601562 4.066406 6.636719 4.050781 6.644531 4.019531 L 6.863281 3.449219 Z M 6.863281 5.886719 C 6.878906 5.859375 6.898438 5.847656 6.929688 5.847656 C 6.960938 5.847656 6.980469 5.859375 6.996094 5.886719 L 7.214844 6.464844 C 7.222656 6.496094 7.253906 6.511719 7.28125 6.511719 L 7.898438 6.546875 C 7.964844 6.546875 7.988281 6.628906 7.941406 6.675781 L 7.449219 7.058594 C 7.425781 7.082031 7.421875 7.109375 7.433594 7.140625 L 7.597656 7.726562 C 7.609375 7.761719 7.601562 7.789062 7.570312 7.8125 C 7.542969 7.832031 7.511719 7.832031 7.484375 7.808594 L 6.96875 7.476562 C 6.941406 7.457031 6.914062 7.457031 6.886719 7.476562 L 6.375 7.808594 C 6.347656 7.832031 6.316406 7.832031 6.289062 7.8125 C 6.257812 7.789062 6.25 7.761719 6.261719 7.726562 L 6.425781 7.132812 C 6.433594 7.101562 6.425781 7.074219 6.398438 7.050781 L 5.917969 6.675781 C 5.890625 6.65625 5.882812 6.628906 5.894531 6.597656 C 5.90625 6.566406 5.925781 6.546875 5.960938 6.546875 L 6.578125 6.511719 C 6.601562 6.511719 6.636719 6.496094 6.644531 6.464844 L 6.863281 5.894531 Z M 6.863281 5.886719 " fill-opacity="1" fill-rule="nonzero"/></g></g><g clip-path="url(#38556f97b9)"><g clip-path="url(#90c0b68410)"><path fill="#ef5350" d="M 17.933594 7.335938 L 22.011719 7.335938 L 22.011719 22.011719 L 17.933594 22.011719 Z M 17.933594 7.335938 " fill-opacity="1" fill-rule="nonzero"/></g></g><g clip-path="url(#5dccb53bcf)"><g clip-path="url(#b120993191)"><path fill="#f8f9fd" d="M 11.414062 7.335938 L 17.933594 7.335938 L 17.933594 22.011719 L 11.414062 22.011719 Z M 11.414062 7.335938 " fill-opacity="1" fill-rule="nonzero"/></g></g><g clip-path="url(#b179f9fdab)"><g clip-path="url(#b5859d0950)"><path fill="#ff9800" d="M 17.121094 13.65625 L 15.285156 13.65625 C 15.285156 13.484375 15.226562 13.34375 15.105469 13.222656 C 14.988281 13.101562 14.84375 13.042969 14.675781 13.042969 C 14.503906 13.042969 14.359375 13.101562 14.242188 13.222656 C 14.121094 13.34375 14.0625 13.484375 14.0625 13.65625 L 12.226562 13.65625 C 12.226562 13.988281 12.523438 14.265625 12.855469 14.265625 L 12.839844 14.265625 C 12.839844 14.601562 13.117188 14.878906 13.449219 14.878906 C 13.449219 15.210938 13.726562 15.488281 14.0625 15.488281 L 15.285156 15.488281 C 15.621094 15.488281 15.898438 15.210938 15.898438 14.878906 C 16.230469 14.878906 16.507812 14.601562 16.507812 14.265625 L 16.484375 14.265625 C 16.824219 14.265625 17.121094 13.988281 17.121094 13.65625 Z M 17.121094 13.65625 " fill-opacity="1" fill-rule="nonzero"/></g></g><g clip-path="url(#b80a8491c6)"><g clip-path="url(#73bd644f6a)"><path fill="#4caf50" d="M 7.335938 7.335938 L 11.414062 7.335938 L 11.414062 22.011719 L 7.335938 22.011719 Z M 7.335938 7.335938 " fill-opacity="1" fill-rule="nonzero"/></g></g></svg>